<?xml version="1.0" standalone="no"?><!DOCTYPE svg PUBLIC "-//W3C//DTD SVG 1.1//EN" "http://www.w3.org/Graphics/SVG/1.1/DTD/svg11.dtd"><svg t="1612890464730" class="icon" viewBox="0 0 1024 1024" version="1.1" xmlns="http://www.w3.org/2000/svg" p-id="4032" xmlns:xlink="http://www.w3.org/1999/xlink" width="200" height="200"><defs><style type="text/css"></style></defs><path d="M902.940743 1024H120.681139A117.799771 117.799771 0 0 1 3.169387 906.200229V432.408973a117.511752 117.511752 0 0 1 117.511752-115.2076h782.259604a117.511752 117.511752 0 0 1 117.511753 115.2076v473.791256a117.799771 117.799771 0 0 1-117.511753 117.799771zM120.681139 387.766028A45.507002 45.507002 0 0 0 75.174137 432.408973v473.791256A45.795021 45.795021 0 0 0 120.681139 950.843174h782.259604a45.795021 45.795021 0 0 0 45.507002-45.795021V432.408973a45.507002 45.507002 0 0 0-45.507002-45.507002z" fill="#545454" p-id="4033"></path><path d="M966.016904 862.70936H570.278798a36.002375 36.002375 0 0 1-36.002375-36.002375V497.501268A36.002375 36.002375 0 0 1 570.278798 461.210874h395.738106a36.002375 36.002375 0 0 1 0 72.00475H606.281173v257.200967h359.735731a36.002375 36.002375 0 0 1 0 72.00475z" fill="#545454" p-id="4034"></path><path d="M752.306806 663.400212m-72.292769 0a72.292769 72.292769 0 1 0 144.585538 0 72.292769 72.292769 0 1 0-144.585538 0Z" fill="#545454" p-id="4035"></path><path d="M303.861223 374.805173a35.426337 35.426337 0 0 1-31.970109-19.873311 36.002375 36.002375 0 0 1 16.129064-48.387192L723.216887 89.666363a36.002375 36.002375 0 0 1 48.387192 16.129064l103.398821 207.37368A36.002375 36.002375 0 1 1 811.062682 346.003273L723.216887 170.311683l-403.2266 201.6133a35.714356 35.714356 0 0 1-16.129064 2.88019z" fill="#545454" p-id="4036"></path><path d="M194.414003 374.805173a36.002375 36.002375 0 0 1-23.329539-63.36418L526.49991 9.021043A36.002375 36.002375 0 0 1 579.207387 14.493404l86.4057 110.311277a36.002375 36.002375 0 0 1-57.6038 43.778888l-63.652199-80.357301-326.613546 277.362297a35.426337 35.426337 0 0 1-23.329539 9.216608z" fill="#545454" p-id="4037"></path></svg>