<?xml version="1.0" standalone="no"?><!DOCTYPE svg PUBLIC "-//W3C//DTD SVG 1.1//EN" "http://www.w3.org/Graphics/SVG/1.1/DTD/svg11.dtd"><svg t="1612893173250" class="icon" viewBox="0 0 1024 1024" version="1.1" xmlns="http://www.w3.org/2000/svg" p-id="9124" xmlns:xlink="http://www.w3.org/1999/xlink" width="200" height="200"><defs><style type="text/css"></style></defs><path d="M512 85.333333a426.666667 426.666667 0 1 0 426.666667 426.666667A426.666667 426.666667 0 0 0 512 85.333333z m0 768a341.333333 341.333333 0 1 1 341.333333-341.333333 341.333333 341.333333 0 0 1-341.333333 341.333333z" fill="#FF3513" p-id="9125"></path><path d="M469.333333 657.066667H375.466667v-55.04H469.333333v-30.293334H375.466667v-55.04h65.28l-77.653334-157.866666h76.8l49.92 106.666666a187.733333 187.733333 0 0 1 13.653334 34.986667 203.093333 203.093333 0 0 1 13.653333-34.986667l50.773333-106.666666h77.226667l-78.933333 157.866666h66.133333v55.04h-93.866667v30.293334h93.866667v55.04h-93.866667V725.333333H469.333333z" fill="#FF3513" p-id="9126"></path></svg>