<?xml version="1.0" standalone="no"?><!DOCTYPE svg PUBLIC "-//W3C//DTD SVG 1.1//EN" "http://www.w3.org/Graphics/SVG/1.1/DTD/svg11.dtd"><svg t="1613449006014" class="icon" viewBox="0 0 1024 1024" version="1.1" xmlns="http://www.w3.org/2000/svg" p-id="3325" xmlns:xlink="http://www.w3.org/1999/xlink" width="200" height="200"><defs><style type="text/css"></style></defs><path d="M865.488 450.64c-40.496 0-53.488 40.672-53.488 61.344v337.232c0 20.72-33.904 54.768-54.528 54.784L688 903.808V585.344a32 32 0 0 0-32-32H400a32 32 0 0 0-32 32v317.616l-106.672-0.288h1.216c-20.672 0-51.888-32.736-51.888-53.456V512c0-20.688-9.104-72.4-48.992-72.4-46 0-57.712 51.712-57.712 72.4v369.232A110.64 110.64 0 0 0 214.72 992h590.8a110.656 110.656 0 0 0 110.768-110.784V512c0.016-20.688-15.296-61.36-50.8-61.36zM427.504 637.296c0-14.8 9.2-26.8 20.544-26.8h164.4c11.344 0 20.544 12 20.544 26.8v266.368l-205.504-0.56V637.296zM987.168 239.488L913.312 54.88c-5.152-14.016-19.2-22.896-33.968-22.896H140.88c-14.768 0-28.784 8.864-33.968 22.896L33.056 239.488a31.92 31.92 0 0 0-2.96 14.016c0 81.232 66.464 147.712 147.696 147.712 44.304 0 83.44-19.2 110.768-50.224 27.328 31.008 66.448 50.224 110.768 50.224 44.304 0 83.44-19.2 110.768-50.224 27.328 31.008 66.464 50.224 110.752 50.224 44.336 0 83.456-19.2 110.8-50.224 27.296 31.008 66.432 50.224 110.768 50.224 81.232 0 147.664-66.48 147.664-147.712a31.408 31.408 0 0 0-2.912-14.016z" p-id="3326"></path></svg>