<?xml version="1.0" standalone="no"?><!DOCTYPE svg PUBLIC "-//W3C//DTD SVG 1.1//EN" "http://www.w3.org/Graphics/SVG/1.1/DTD/svg11.dtd"><svg t="1613449122800" class="icon" viewBox="0 0 1024 1024" version="1.1" xmlns="http://www.w3.org/2000/svg" p-id="4206" xmlns:xlink="http://www.w3.org/1999/xlink" width="200" height="200"><defs><style type="text/css"></style></defs><path d="M880.281336 14.140154H133.273529C80.201507 14.140154 37.105002 59.822139 37.105002 115.964742v791.105476c0 56.132282 43.096505 101.814267 96.163366 101.814267h747.11618c53.061701 0 96.214973-45.681986 96.214973-101.814267V115.964742c-0.056767-56.204531-43.210039-101.824589-96.318185-101.824588zM805.111453 267.950752c-18.088043 148.6832-144.931415 264.033826-298.377886 264.033827-153.271009 0-280.104059-115.350626-298.192103-264.033827a28.125488 28.125488 0 0 1-0.196104-3.209918c0-14.682021 12.251359-26.923059 27.341071-26.923059a27.077878 27.077878 0 0 1 26.866292 23.831836c14.976177 121.435021 118.705042 215.957304 244.175683 215.957303 125.480963 0 229.380129-94.522283 244.361467-215.957303a27.077878 27.077878 0 0 1 26.866292-23.831836c16.183767 0 29.10601 14.073065 27.155288 30.132977z" p-id="4207"></path></svg>