<?xml version="1.0" standalone="no"?><!DOCTYPE svg PUBLIC "-//W3C//DTD SVG 1.1//EN" "http://www.w3.org/Graphics/SVG/1.1/DTD/svg11.dtd"><svg t="1612890635290" class="icon" viewBox="0 0 1024 1024" version="1.1" xmlns="http://www.w3.org/2000/svg" p-id="6626" xmlns:xlink="http://www.w3.org/1999/xlink" width="200" height="200"><defs><style type="text/css"></style></defs><path d="M512 1002.666667C241.450667 1002.666667 21.333333 782.570667 21.333333 512 21.333333 241.450667 241.450667 21.333333 512 21.333333c270.570667 0 490.666667 220.117333 490.666667 490.666667 0 270.570667-220.096 490.666667-490.666667 490.666667z m0-938.666667C264.96 64 64 264.96 64 512c0 247.018667 200.96 448 448 448 247.018667 0 448-200.981333 448-448 0-247.04-200.981333-448-448-448z" fill="#231815" p-id="6627"></path><path d="M512 917.333333C288.490667 917.333333 106.666667 735.509333 106.666667 512S288.490667 106.666667 512 106.666667s405.333333 181.824 405.333333 405.333333-181.824 405.333333-405.333333 405.333333z m0-768C312.021333 149.333333 149.333333 312.021333 149.333333 512s162.688 362.666667 362.666667 362.666667 362.666667-162.688 362.666667-362.666667S711.978667 149.333333 512 149.333333z" fill="#231815" p-id="6628"></path><path d="M725.333333 448v-42.666667h-140.501333l87.936-87.914666-30.186667-30.186667L524.501333 405.333333h-25.002666l-118.08-118.101333-30.186667 30.186667L439.168 405.333333H298.666667v42.666667h192v106.666667h-192v42.666666h192v170.666667h42.666666v-170.666667h192v-42.666666h-192v-106.666667z" fill="#231815" p-id="6629"></path></svg>