<?xml version="1.0" standalone="no"?><!DOCTYPE svg PUBLIC "-//W3C//DTD SVG 1.1//EN" "http://www.w3.org/Graphics/SVG/1.1/DTD/svg11.dtd"><svg t="1612890623988" class="icon" viewBox="0 0 1024 1024" version="1.1" xmlns="http://www.w3.org/2000/svg" p-id="6500" xmlns:xlink="http://www.w3.org/1999/xlink" width="200" height="200"><defs><style type="text/css"></style></defs><path d="M533.048889 359.082667v63.829333h128.682667v63.886222H533.048889v158.264889H471.836444V486.798222H356.693333V422.912h115.143111V359.139556H356.693333V295.253333h92.16L364.088889 146.602667l52.622222-32.597334 85.788445 151.324445 85.674666-151.324445 52.679111 32.597334L556.373333 295.253333h105.358223v63.829334H533.048889z m217.315555 549.546666h182.613334v63.829334H85.447111v-63.772445h182.442667v-127.715555H31.516444a29.980444 29.980444 0 0 1-21.617777-9.329778 32.597333 32.597333 0 0 1-9.045334-22.584889V32.995556C0.853333 24.462222 4.096 16.384 9.841778 10.410667A29.980444 29.980444 0 0 1 31.516444 1.137778h955.392c8.135111 0 15.928889 3.356444 21.617778 9.329778a32.597333 32.597333 0 0 1 9.045334 22.584888v716.060445a32.597333 32.597333 0 0 1-8.988445 22.584889 29.980444 29.980444 0 0 1-21.674667 9.329778h-180.622222v-63.772445h150.016V64.853333H62.122667v652.288h236.373333c8.135111 0 15.928889 3.299556 21.674667 9.329778a32.597333 32.597333 0 0 1 8.988444 22.528v159.630222h360.106667v-127.715555h-296.391111v-63.772445h326.371555a31.288889 31.288889 0 0 1 30.663111 31.857778l0.455111 159.630222z" p-id="6501"></path></svg>