<?xml version="1.0" standalone="no"?><!DOCTYPE svg PUBLIC "-//W3C//DTD SVG 1.1//EN" "http://www.w3.org/Graphics/SVG/1.1/DTD/svg11.dtd"><svg t="1612893192566" class="icon" viewBox="0 0 1024 1024" version="1.1" xmlns="http://www.w3.org/2000/svg" p-id="9938" xmlns:xlink="http://www.w3.org/1999/xlink" width="200" height="200"><defs><style type="text/css"></style></defs><path d="M829.793103 247.172414h-17.655172V123.586207c0-30.013793-22.951724-52.965517-52.965517-52.965517s-52.965517 22.951724-52.965517 52.965517v123.586207h-52.965518V52.965517c0-30.013793-22.951724-52.965517-52.965517-52.965517s-52.965517 22.951724-52.965517 52.965517v194.206897h-52.965517V123.586207c0-30.013793-22.951724-52.965517-52.965518-52.965517s-52.965517 22.951724-52.965517 52.965517v123.586207h-52.965517v-70.62069c0-30.013793-22.951724-52.965517-52.965517-52.965517s-52.965517 22.951724-52.965518 52.965517v70.62069h-35.310344c-58.262069 0-105.931034 47.668966-105.931035 105.931034v353.103449c0 58.262069 47.668966 105.931034 105.931035 105.931034h33.544827c38.841379 123.586207 151.834483 211.862069 284.248276 211.862069s245.406897-88.275862 284.248276-211.862069H829.793103c58.262069 0 105.931034-47.668966 105.931035-105.931034V353.103448c0-58.262069-47.668966-105.931034-105.931035-105.931034z m17.655173 406.068965c0 26.482759-14.124138 49.434483-35.310345 60.027587V635.586207c0-30.013793-22.951724-52.965517-52.965517-52.965517s-52.965517 22.951724-52.965517 52.965517v88.275862H247.172414c-38.841379 0-70.62069-31.77931-70.62069-70.62069V406.068966c0-38.841379 31.77931-70.62069 70.62069-70.62069h529.655172c38.841379 0 70.62069 31.77931 70.62069 70.62069v247.172413z" fill="#FFC600" p-id="9939"></path><path d="M635.586207 512h-70.62069v-7.062069l60.027586-68.855172c14.124138-15.889655 14.124138-38.841379 0-54.731035-14.124138-15.889655-35.310345-15.889655-47.668965 0L529.655172 436.082759l-47.668965-54.731035c-14.124138-15.889655-35.310345-15.889655-47.668966 0-14.124138 15.889655-14.124138 38.841379 0 54.731035l61.793104 68.855172v7.062069h-70.62069c-19.42069 0-35.310345 15.889655-35.310345 35.310345s15.889655 35.310345 35.310345 35.310345h70.62069v88.275862c0 19.42069 15.889655 35.310345 35.310345 35.310345s35.310345-15.889655 35.310344-35.310345v-88.275862h70.62069c19.42069 0 35.310345-15.889655 35.310345-35.310345s-17.655172-35.310345-37.075862-35.310345z" fill="#BFBFBF" p-id="9940"></path></svg>