<?xml version="1.0" standalone="no"?><!DOCTYPE svg PUBLIC "-//W3C//DTD SVG 1.1//EN" "http://www.w3.org/Graphics/SVG/1.1/DTD/svg11.dtd"><svg t="1612890877801" class="icon" viewBox="0 0 1024 1024" version="1.1" xmlns="http://www.w3.org/2000/svg" p-id="8118" xmlns:xlink="http://www.w3.org/1999/xlink" width="200" height="200"><defs><style type="text/css"></style></defs><path d="M958.708971 690.184215l-214.620055-59.894112s-39.394219-14.563694-96.627735-33.616632c0.617054-1.125637 1.216711-2.232854 1.794879-3.318582 39.929408-74.867128 76.863598-201.64351 76.863599-201.643509H520.485255v-71.872934h248.560052v-38.930661H520.485255V165.113525h-75.289754c-24.02416 0-43.500746 19.475564-43.500746 43.500747v72.294536H179.088818v38.930661h222.605937v72.870658H219.018226v39.929407h381.324821s-10.980076 31.943526-47.915289 127.774106a189.997262 189.997262 0 0 1-2.175549 5.369287c-96.842629-29.194926-207.185736-57.277518-273.336342-57.277518-114.51615 0-184.76919 43.465954-205.215872 123.5632-3.970428 14.135952-6.408967 30.133298-6.408966 48.132231 0 97.827049 103.81646 160.715355 224.602407 160.715355 132.327818 0 236.170884-84.954881 300.167431-161.52479C728.065987 739.897454 958.708971 858.885452 958.708971 858.885452V690.184215zM258.947634 786.014794c-112.800066 0-161.714102-62.888306-161.714102-120.785947 0-45.682435 33.553187-73.337285 47.713698-82.975807 24.600281-10.657734 53.809533-16.847713 86.049818-16.847713 83.729983 0 166.818353 34.746362 270.466991 77.29748-61.761646 74.444503-160.343895 143.311986-242.516405 143.311987z" p-id="8119"></path></svg>