<?xml version="1.0" standalone="no"?><!DOCTYPE svg PUBLIC "-//W3C//DTD SVG 1.1//EN" "http://www.w3.org/Graphics/SVG/1.1/DTD/svg11.dtd"><svg t="1612893169441" class="icon" viewBox="0 0 1024 1024" version="1.1" xmlns="http://www.w3.org/2000/svg" p-id="8998" xmlns:xlink="http://www.w3.org/1999/xlink" width="200" height="200"><defs><style type="text/css"></style></defs><path d="M958.507 156.38c-83.961 0-139.934-55.974-139.934-139.934L510.718 44.434 202.86 16.446c0 83.96-55.972 139.934-139.933 139.934-55.974 643.698 447.79 867.59 447.79 867.59s503.763-223.892 447.789-867.59z m-354.74 279.47h111.349v99.657h-146.94v43.426h146.94v100.43h-146.94v120.715H453.09V679.363h-152.34v-100.43h152.34v-43.425h-152.34v-99.657h115.374l-158.51-272.284h131.277S489.565 349.426 512.49 395.355c7.315-14.775 124.463-231.788 124.463-231.788H763.82L603.767 435.85z" fill="#ff7860" p-id="8999"></path></svg>