<?xml version="1.0" standalone="no"?><!DOCTYPE svg PUBLIC "-//W3C//DTD SVG 1.1//EN" "http://www.w3.org/Graphics/SVG/1.1/DTD/svg11.dtd"><svg t="1613449021584" class="icon" viewBox="0 0 1024 1024" version="1.1" xmlns="http://www.w3.org/2000/svg" p-id="3455" xmlns:xlink="http://www.w3.org/1999/xlink" width="200" height="200"><defs><style type="text/css"></style></defs><path d="M929.365333 373.162667L829.866667 173.44v8.085333c0 0.832-0.085333 1.578667-0.085334 2.410667l0.085334 264.256c0 40.256-15.829333 58.922667-33.493334 75.989333 0 0-170.752 169.429333-289.173333 287.082667l245.333333 65.6a80.618667 80.618667 0 0 0 98.666667-56.917333s77.845333-390.336 81.173333-402.261334c4.757333-16.917333 8.170667-25.088-2.986666-44.501333z m-139.989333 75.008l-0.170667-279.253334c0-24.32-13.077333-40.917333-37.418666-40.917333H471.786667c-18.837333 0-34.24 5.333333-51.498667 23.253333-5.162667 5.333333-311.338667 328-311.338667 328a80.384 80.384 0 0 0 0 113.834667l211.84 227.669333a80.64 80.64 0 0 0 113.92 0S760.874667 496.746667 769.706667 488.085333c12.586667-12.16 19.669333-17.578667 19.669333-39.914666z m-176.746667-86.421334a60.373333 60.373333 0 0 1-60.416-60.330666 60.373333 60.373333 0 0 1 60.416-60.330667 60.373333 60.373333 0 0 1 60.416 60.330667 60.373333 60.373333 0 0 1-60.416 60.330666z" p-id="3456"></path></svg>