<?xml version="1.0" standalone="no"?><!DOCTYPE svg PUBLIC "-//W3C//DTD SVG 1.1//EN" "http://www.w3.org/Graphics/SVG/1.1/DTD/svg11.dtd"><svg t="1614253502629" class="icon" viewBox="0 0 1024 1024" version="1.1" xmlns="http://www.w3.org/2000/svg" p-id="1733" xmlns:xlink="http://www.w3.org/1999/xlink" width="200" height="200"><defs><style type="text/css"></style></defs><path d="M553.408 807.232l228.608 120.576-43.2-253.824c-5.44-28.8 5.376-59.392 25.152-79.168l183.68-180.032-255.68-37.76c-28.8-3.648-53.952-23.424-68.352-48.64L512 96.192l-113.408 230.4a85.12 85.12 0 0 1-68.416 48.64l-255.552 39.552 183.552 180.032c21.632 19.84 30.656 50.368 25.216 79.168l-41.408 253.824 228.608-120.576c25.216-14.464 57.6-14.464 82.816 0z m-50.432 62.976L274.368 990.72c-35.968 17.984-79.168 5.44-97.152-30.592-7.232-14.4-10.816-30.592-7.232-44.992l43.2-253.824c1.792-5.376-1.792-12.608-5.376-16.192L26.048 465.28c-28.8-27.008-28.8-73.792-1.856-102.592 10.816-10.88 25.216-18.048 41.408-21.632l255.616-37.76c5.376 0 10.752-5.44 14.4-9.024l113.408-230.4A72.128 72.128 0 0 1 546.176 31.36c14.4 7.168 25.216 17.92 32.448 32.384l111.552 232.192c1.792 5.376 7.232 8.96 14.4 8.96l255.616 37.824c39.616 5.44 66.56 41.408 61.184 81.024a62.464 62.464 0 0 1-21.568 41.408l-183.616 179.968c-3.584 3.584-5.376 10.816-5.376 16.192l43.2 253.824c7.168 39.616-19.84 75.584-59.392 82.816-16.256 1.792-32.448 0-45.056-7.232l-228.544-120.576a30.72 30.72 0 0 0-18.048 0z" fill="#000000" p-id="1734"></path></svg>