<?xml version="1.0" standalone="no"?><!DOCTYPE svg PUBLIC "-//W3C//DTD SVG 1.1//EN" "http://www.w3.org/Graphics/SVG/1.1/DTD/svg11.dtd"><svg t="1613443467885" class="icon" viewBox="0 0 1024 1024" version="1.1" xmlns="http://www.w3.org/2000/svg" p-id="1723" xmlns:xlink="http://www.w3.org/1999/xlink" width="200" height="200"><defs><style type="text/css"></style></defs><path d="M512 47.793c-255.862 0-464.207 208.346-464.207 464.207s208.346 467.861 464.207 467.861 467.861-208.346 467.861-467.861-208.346-464.207-467.861-464.207v0zM482.759 263.449c0-18.276 14.621-32.897 32.897-32.897s32.897 14.621 32.897 32.897v186.414c0 18.276-14.621 32.897-32.897 32.897s-32.897-14.621-32.897-32.897v-186.414zM512 793.447c-138.896 0-248.551-109.655-248.551-248.551 0-106 65.793-193.725 157.172-230.275v69.449c-54.828 32.897-95.034 91.379-95.034 160.829 0 102.345 84.069 186.414 186.414 186.414s186.414-84.069 186.414-186.414c0-69.449-36.553-127.931-95.034-160.829v-69.449c91.379 36.553 157.172 124.276 157.172 230.275 0 135.241-109.655 248.551-248.551 248.551v0zM512 793.447z" p-id="1724"></path></svg>