<?xml version="1.0" standalone="no"?><!DOCTYPE svg PUBLIC "-//W3C//DTD SVG 1.1//EN" "http://www.w3.org/Graphics/SVG/1.1/DTD/svg11.dtd"><svg t="1613668406537" class="icon" viewBox="0 0 1024 1024" version="1.1" xmlns="http://www.w3.org/2000/svg" p-id="1734" xmlns:xlink="http://www.w3.org/1999/xlink" width="200" height="200"><defs><style type="text/css"></style></defs><path d="M409.6 398.222q34.133 0 34.133 34.133v68.267q0 34.133-34.133 34.133t-34.133-34.133v-68.267q0-34.133 34.133-34.133z m227.555 0q34.134 0 34.134 34.133v68.267q0 34.133-34.134 34.133t-34.133-34.133v-68.267q0-34.133 34.133-34.133z" fill="#8a8a8a" p-id="1735"></path><path d="M873.177 858.726A498.62 498.62 0 0 0 1012.622 512c0-276.025-224.552-500.622-500.576-500.622C235.93 11.264 11.378 235.861 11.378 512c0 276.025 224.552 500.622 500.576 500.622h364.68c17.773 0 33.884-10.285 41.37-26.283a45.625 45.625 0 0 0-6.144-48.65m-103.697 1.683H512C276.366 939.349 84.65 747.634 84.65 512S276.367 84.65 512 84.65 939.35 276.367 939.35 512a425.301 425.301 0 0 1-119.035 295.936c-34.224 35.499-31.425 84.582-12.152 131.436z" fill="#8a8a8a" p-id="1736"></path></svg>